
<svg xmlns="http://www.w3.org/2000/svg">
  <defs>
    <symbol id="icon-home" viewBox="0 0 24 24">
      <style>.cls-1{fill:none;}</style>
      <g>
        <path class="cls-1" d="M13,14H11a1,1,0,0,0-1,1v5h4V15A1,1,0,0,0,13,14Z"></path>
        <path class="cls-1" d="M12.71,4.12a1,1,0,0,0-1.42,0l-7,7a1,1,0,0,0-.29.71V19a1,1,0,0,0,1,1H8V15a3,3,0,0,1,3-3h2a3,3,0,0,1,3,3v5h3a1,1,0,0,0,1-1V11.83a1,1,0,0,0-.29-.71Z"></path>
        <path d="M21.12,9.71l-7-7a3.06,3.06,0,0,0-4.24,0l-7,7A3,3,0,0,0,2,11.83V19a3,3,0,0,0,3,3H19a3,3,0,0,0,3-3V11.83A3,3,0,0,0,21.12,9.71ZM10,20V15a1,1,0,0,1,1-1h2a1,1,0,0,1,1,1v5Zm10-1a1,1,0,0,1-1,1H16V15a3,3,0,0,0-3-3H11a3,3,0,0,0-3,3v5H5a1,1,0,0,1-1-1V11.83a1,1,0,0,1,.29-.71l7-7a1,1,0,0,1,1.42,0l7,7a1,1,0,0,1,.29.71Z"></path>
      </g>
    </symbol>

    <symbol id="icon-skills" viewBox="0 0 24 24">
      <g>
        <path d="M20,6H4A1,1,0,0,1,4,4H20a1,1,0,0,1,0,2Z"></path>
        <path d="M17,13H4a1,1,0,0,1,0-2H17a1,1,0,0,1,0,2Z"></path>
        <path d="M20,20H4a1,1,0,0,1,0-2H20a1,1,0,0,1,0,2Z"></path>
      </g>
    </symbol>

    <symbol id="icon-todo" viewBox="0 0 24 24">
      <g data-name="Map Pin">
        <path d="M12,22a1,1,0,0,1-.71-.3C10.54,20.94,4,14.15,4,10a8,8,0,0,1,16,0c0,4.15-6.54,10.94-7.29,11.7A1,1,0,0,1,12,22ZM12,4a6,6,0,0,0-6,6c0,2.52,3.84,7.21,6,9.55,2.16-2.34,6-7,6-9.55A6,6,0,0,0,12,4Z"></path>
        <path d="M12,14a4,4,0,1,1,4-4A4,4,0,0,1,12,14Zm0-6a2,2,0,1,0,2,2A2,2,0,0,0,12,8Z"></path>
      </g>
    </symbol>

    <symbol id="icon-logs" viewBox="0 0 24 24">
      <g>
        <path d="M19,4H16.83a3,3,0,0,0-2.12.88L14.59,5H7A3,3,0,0,0,4,8V9.18A3,3,0,0,0,2,12v5a3,3,0,0,0,3,3H19a3,3,0,0,0,3-3V7A3,3,0,0,0,19,4ZM7,7h5.59L10.88,8.71a1,1,0,0,1-.71.29H6V8A1,1,0,0,1,7,7ZM20,17a1,1,0,0,1-1,1H5a1,1,0,0,1-1-1V12a1,1,0,0,1,1-1h5.17a3,3,0,0,0,2.12-.88l3.42-3.41h0l.41-.42A1,1,0,0,1,16.83,6H19a1,1,0,0,1,1,1Z"></path>
      </g>
    </symbol>

    <symbol id="icon-profile" viewBox="0 0 24 24">
      <g>
        <path d="M12,12a5,5,0,1,1,5-5A5,5,0,0,1,12,12Zm0-8a3,3,0,1,0,3,3A3,3,0,0,0,12,4Z"></path>
        <path d="M16.58,22H7.42a3,3,0,0,1-2.76-4.18,8,8,0,0,1,14.68,0A3,3,0,0,1,16.58,22ZM12,15a6,6,0,0,0-5.51,3.62,1,1,0,0,0,.09.92,1,1,0,0,0,.84.46h9.16a1,1,0,0,0,.84-.46,1,1,0,0,0,.09-.92A6,6,0,0,0,12,15Z"></path>
      </g>
    </symbol>


    <symbol id="icon-search" viewBox="0 0 24 24">
      <style>.cls-1{fill:none;}</style>
      <g>
        <circle class="cls-1" cx="10" cy="10" r="6"></circle>
        <path d="M20.71,19.29l-4.4-4.39A7.92,7.92,0,0,0,18,10a8,8,0,1,0-8,8,7.92,7.92,0,0,0,4.9-1.69l4.39,4.4a1,1,0,0,0,1.42,0A1,1,0,0,0,20.71,19.29ZM10,16a6,6,0,1,1,6-6A6,6,0,0,1,10,16Z"></path>
      </g>
    </symbol>

    <symbol id="icon-edit" viewBox="0 0 24 24">
      <g>
        <path d="M16.5,20H7a5,5,0,0,1-1-9.91A3.81,3.81,0,0,1,6,9.5,5.5,5.5,0,0,1,17,9a5.5,5.5,0,0,1-.48,11ZM7,12a3,3,0,0,0,0,6h9.5a3.5,3.5,0,0,0,0-7,2.85,2.85,0,0,0-.29,0l-.14,0A1,1,0,0,1,15,9.93l0-.14a2.85,2.85,0,0,0,0-.29,3.5,3.5,0,0,0-7,0,3.44,3.44,0,0,0,.22,1.17,1,1,0,0,1-.13.91,1,1,0,0,1-.81.42Z"></path>
      </g>
    </symbol>

    <symbol id="icon-add" viewBox="0 0 24 24">
      <g>
        <path d="M18,21H6a3,3,0,0,1-3-3V6A3,3,0,0,1,6,3H18a3,3,0,0,1,3,3V18A3,3,0,0,1,18,21ZM6,5A1,1,0,0,0,5,6V18a1,1,0,0,0,1,1H18a1,1,0,0,0,1-1V6a1,1,0,0,0-1-1Z"></path>
        <path d="M15,11H13V9a1,1,0,0,0-2,0v2H9a1,1,0,0,0,0,2h2v2a1,1,0,0,0,2,0V13h2a1,1,0,0,0,0-2Z"></path>
      </g>
    </symbol>

    <symbol id="icon-back" viewBox="0 0 24 24">
      <g>
        <path d="M14.5,22a1,1,0,0,1-.71-.29l-9-9a1,1,0,0,1,0-1.42l9-9a1,1,0,1,1,1.42,1.42L6.91,12l8.3,8.29a1,1,0,0,1,0,1.42A1,1,0,0,1,14.5,22Z"></path>
      </g>
    </symbol>
  </defs>
</svg>
