<svg xmlns="http://www.w3.org/2000/svg" viewBox="0 0 24 24" x="0px" y="0px"><defs><style>.cls-1{fill:none;}</style></defs><g><path class="cls-1" d="M15.38,7.38a3.38,3.38,0,0,0-6.76,0V8h6.76Z"></path><rect class="cls-1" x="5" y="10" width="14" height="10" rx="1"></rect><path d="M18,8h-.62V7.38a5.38,5.38,0,1,0-10.76,0V8H6a3,3,0,0,0-3,3v8a3,3,0,0,0,3,3H18a3,3,0,0,0,3-3V11A3,3,0,0,0,18,8ZM8.62,7.38a3.38,3.38,0,0,1,6.76,0V8H8.62ZM19,19a1,1,0,0,1-1,1H6a1,1,0,0,1-1-1V11a1,1,0,0,1,1-1H18a1,1,0,0,1,1,1Z"></path><path d="M14,14a2,2,0,1,0-2.95,1.75A1,1,0,0,0,11,16v1a1,1,0,0,0,2,0V16a1,1,0,0,0-.05-.25A2,2,0,0,0,14,14Z"></path></g></svg>